<mxfile host="app.diagrams.net" modified="2022-12-23T04:29:56.621Z" agent="5.0 (Macintosh; Intel Mac OS X 10_15_7) AppleWebKit/537.36 (KHTML, like Gecko) Chrome/108.0.0.0 Safari/537.36" etag="Y_frrPCT-rutCoj9V4b6" version="20.7.4" type="github">
  <diagram id="50uXjZWjgizl9-gbEzyX" name="Page-1">
    <mxGraphModel dx="1613" dy="414" grid="1" gridSize="10" guides="1" tooltips="1" connect="1" arrows="1" fold="1" page="1" pageScale="1" pageWidth="850" pageHeight="1100" math="0" shadow="0">
      <root>
        <mxCell id="0" />
        <mxCell id="1" parent="0" />
        <mxCell id="VLugGdpwfvtk1Kc6txvS-2" value="User" style="rounded=1;whiteSpace=wrap;html=1;" parent="1" vertex="1">
          <mxGeometry x="-520" y="80" width="120" height="60" as="geometry" />
        </mxCell>
        <mxCell id="VLugGdpwfvtk1Kc6txvS-3" value="Template" style="rounded=1;whiteSpace=wrap;html=1;" parent="1" vertex="1">
          <mxGeometry x="10" y="350" width="120" height="60" as="geometry" />
        </mxCell>
        <mxCell id="VLugGdpwfvtk1Kc6txvS-4" value="Document" style="rounded=1;whiteSpace=wrap;html=1;" parent="1" vertex="1">
          <mxGeometry x="10" y="200" width="120" height="60" as="geometry" />
        </mxCell>
        <mxCell id="VLugGdpwfvtk1Kc6txvS-5" value="NDA" style="rounded=1;whiteSpace=wrap;html=1;" parent="1" vertex="1">
          <mxGeometry x="10" y="60" width="120" height="60" as="geometry" />
        </mxCell>
        <mxCell id="VLugGdpwfvtk1Kc6txvS-6" value="Workflow" style="rounded=1;whiteSpace=wrap;html=1;" parent="1" vertex="1">
          <mxGeometry x="240" y="60" width="120" height="60" as="geometry" />
        </mxCell>
        <mxCell id="VLugGdpwfvtk1Kc6txvS-7" value="Permission" style="rounded=1;whiteSpace=wrap;html=1;" parent="1" vertex="1">
          <mxGeometry x="-300" y="80" width="120" height="60" as="geometry" />
        </mxCell>
        <mxCell id="VLugGdpwfvtk1Kc6txvS-8" value="Field" style="rounded=1;whiteSpace=wrap;html=1;" parent="1" vertex="1">
          <mxGeometry x="240" y="200" width="120" height="60" as="geometry" />
        </mxCell>
        <mxCell id="VLugGdpwfvtk1Kc6txvS-9" value="Step" style="rounded=1;whiteSpace=wrap;html=1;" parent="1" vertex="1">
          <mxGeometry x="430" y="60" width="120" height="60" as="geometry" />
        </mxCell>
        <mxCell id="VLugGdpwfvtk1Kc6txvS-10" value="" style="rounded=1;whiteSpace=wrap;html=1;" parent="1" vertex="1">
          <mxGeometry x="620" y="60" width="120" height="60" as="geometry" />
        </mxCell>
        <mxCell id="VLugGdpwfvtk1Kc6txvS-11" value="" style="endArrow=classic;html=1;rounded=0;" parent="1" edge="1">
          <mxGeometry relative="1" as="geometry">
            <mxPoint x="-400" y="110" as="sourcePoint" />
            <mxPoint x="-300" y="110" as="targetPoint" />
          </mxGeometry>
        </mxCell>
        <mxCell id="VLugGdpwfvtk1Kc6txvS-12" value="1 - *" style="edgeLabel;resizable=0;html=1;align=center;verticalAlign=middle;" parent="VLugGdpwfvtk1Kc6txvS-11" connectable="0" vertex="1">
          <mxGeometry relative="1" as="geometry" />
        </mxCell>
        <mxCell id="B2m-hiyiC4zVJFIlBCmN-1" value="" style="endArrow=classic;html=1;rounded=0;exitX=1;exitY=0.25;exitDx=0;exitDy=0;entryX=0;entryY=0.25;entryDx=0;entryDy=0;" edge="1" parent="1" source="VLugGdpwfvtk1Kc6txvS-4" target="VLugGdpwfvtk1Kc6txvS-8">
          <mxGeometry relative="1" as="geometry">
            <mxPoint x="70" y="190" as="sourcePoint" />
            <mxPoint x="170" y="190" as="targetPoint" />
          </mxGeometry>
        </mxCell>
        <mxCell id="B2m-hiyiC4zVJFIlBCmN-2" value="1 - *" style="edgeLabel;resizable=0;html=1;align=center;verticalAlign=middle;" connectable="0" vertex="1" parent="B2m-hiyiC4zVJFIlBCmN-1">
          <mxGeometry relative="1" as="geometry" />
        </mxCell>
        <mxCell id="B2m-hiyiC4zVJFIlBCmN-4" value="" style="endArrow=classic;html=1;rounded=0;entryX=0;entryY=0.25;entryDx=0;entryDy=0;exitX=1;exitY=0.25;exitDx=0;exitDy=0;" edge="1" parent="1" source="VLugGdpwfvtk1Kc6txvS-5" target="VLugGdpwfvtk1Kc6txvS-6">
          <mxGeometry relative="1" as="geometry">
            <mxPoint x="170" y="150" as="sourcePoint" />
            <mxPoint x="170" y="190" as="targetPoint" />
          </mxGeometry>
        </mxCell>
        <mxCell id="B2m-hiyiC4zVJFIlBCmN-5" value="1 - 1" style="edgeLabel;resizable=0;html=1;align=center;verticalAlign=middle;" connectable="0" vertex="1" parent="B2m-hiyiC4zVJFIlBCmN-4">
          <mxGeometry relative="1" as="geometry" />
        </mxCell>
        <mxCell id="B2m-hiyiC4zVJFIlBCmN-9" value="" style="endArrow=classic;html=1;rounded=0;exitX=1;exitY=0.5;exitDx=0;exitDy=0;entryX=0;entryY=0.5;entryDx=0;entryDy=0;" edge="1" parent="1" source="VLugGdpwfvtk1Kc6txvS-6" target="VLugGdpwfvtk1Kc6txvS-9">
          <mxGeometry relative="1" as="geometry">
            <mxPoint x="140" y="160" as="sourcePoint" />
            <mxPoint x="240" y="160" as="targetPoint" />
          </mxGeometry>
        </mxCell>
        <mxCell id="B2m-hiyiC4zVJFIlBCmN-10" value="1 - *" style="edgeLabel;resizable=0;html=1;align=center;verticalAlign=middle;" connectable="0" vertex="1" parent="B2m-hiyiC4zVJFIlBCmN-9">
          <mxGeometry relative="1" as="geometry" />
        </mxCell>
        <mxCell id="B2m-hiyiC4zVJFIlBCmN-12" value="" style="endArrow=classic;html=1;rounded=0;exitX=0.25;exitY=1;exitDx=0;exitDy=0;entryX=0.25;entryY=0;entryDx=0;entryDy=0;" edge="1" parent="1" source="VLugGdpwfvtk1Kc6txvS-4" target="VLugGdpwfvtk1Kc6txvS-3">
          <mxGeometry relative="1" as="geometry">
            <mxPoint x="150" y="140" as="sourcePoint" />
            <mxPoint x="250" y="140" as="targetPoint" />
          </mxGeometry>
        </mxCell>
        <mxCell id="B2m-hiyiC4zVJFIlBCmN-13" value="1 - 1" style="edgeLabel;resizable=0;html=1;align=center;verticalAlign=middle;" connectable="0" vertex="1" parent="B2m-hiyiC4zVJFIlBCmN-12">
          <mxGeometry relative="1" as="geometry" />
        </mxCell>
        <mxCell id="B2m-hiyiC4zVJFIlBCmN-14" value="" style="endArrow=classic;html=1;rounded=0;exitX=0.75;exitY=0;exitDx=0;exitDy=0;entryX=0.75;entryY=1;entryDx=0;entryDy=0;" edge="1" parent="1" source="VLugGdpwfvtk1Kc6txvS-3" target="VLugGdpwfvtk1Kc6txvS-4">
          <mxGeometry relative="1" as="geometry">
            <mxPoint x="150" y="140" as="sourcePoint" />
            <mxPoint x="250" y="140" as="targetPoint" />
          </mxGeometry>
        </mxCell>
        <mxCell id="B2m-hiyiC4zVJFIlBCmN-15" value="1 - *" style="edgeLabel;resizable=0;html=1;align=center;verticalAlign=middle;" connectable="0" vertex="1" parent="B2m-hiyiC4zVJFIlBCmN-14">
          <mxGeometry relative="1" as="geometry" />
        </mxCell>
        <mxCell id="B2m-hiyiC4zVJFIlBCmN-17" value="" style="endArrow=classic;html=1;rounded=0;exitX=0;exitY=0.75;exitDx=0;exitDy=0;entryX=1;entryY=0.75;entryDx=0;entryDy=0;" edge="1" parent="1" source="VLugGdpwfvtk1Kc6txvS-8" target="VLugGdpwfvtk1Kc6txvS-4">
          <mxGeometry relative="1" as="geometry">
            <mxPoint x="160" y="130" as="sourcePoint" />
            <mxPoint x="260" y="130" as="targetPoint" />
          </mxGeometry>
        </mxCell>
        <mxCell id="B2m-hiyiC4zVJFIlBCmN-18" value="1 - 1" style="edgeLabel;resizable=0;html=1;align=center;verticalAlign=middle;" connectable="0" vertex="1" parent="B2m-hiyiC4zVJFIlBCmN-17">
          <mxGeometry relative="1" as="geometry" />
        </mxCell>
        <mxCell id="B2m-hiyiC4zVJFIlBCmN-19" value="" style="endArrow=classic;html=1;rounded=0;exitX=0;exitY=0.75;exitDx=0;exitDy=0;entryX=1;entryY=0.75;entryDx=0;entryDy=0;" edge="1" parent="1" source="VLugGdpwfvtk1Kc6txvS-6" target="VLugGdpwfvtk1Kc6txvS-5">
          <mxGeometry relative="1" as="geometry">
            <mxPoint x="200" y="180" as="sourcePoint" />
            <mxPoint x="300" y="180" as="targetPoint" />
          </mxGeometry>
        </mxCell>
        <mxCell id="B2m-hiyiC4zVJFIlBCmN-20" value="1 - *" style="edgeLabel;resizable=0;html=1;align=center;verticalAlign=middle;" connectable="0" vertex="1" parent="B2m-hiyiC4zVJFIlBCmN-19">
          <mxGeometry relative="1" as="geometry" />
        </mxCell>
        <mxCell id="B2m-hiyiC4zVJFIlBCmN-21" value="" style="endArrow=classic;html=1;rounded=0;exitX=0.25;exitY=1;exitDx=0;exitDy=0;entryX=0.25;entryY=0;entryDx=0;entryDy=0;" edge="1" parent="1" source="VLugGdpwfvtk1Kc6txvS-5" target="VLugGdpwfvtk1Kc6txvS-4">
          <mxGeometry relative="1" as="geometry">
            <mxPoint x="260" y="210" as="sourcePoint" />
            <mxPoint x="360" y="210" as="targetPoint" />
          </mxGeometry>
        </mxCell>
        <mxCell id="B2m-hiyiC4zVJFIlBCmN-22" value="1 - 1" style="edgeLabel;resizable=0;html=1;align=center;verticalAlign=middle;" connectable="0" vertex="1" parent="B2m-hiyiC4zVJFIlBCmN-21">
          <mxGeometry relative="1" as="geometry" />
        </mxCell>
        <mxCell id="B2m-hiyiC4zVJFIlBCmN-23" value="" style="endArrow=classic;html=1;rounded=0;exitX=0.75;exitY=0;exitDx=0;exitDy=0;entryX=0.75;entryY=1;entryDx=0;entryDy=0;" edge="1" parent="1" source="VLugGdpwfvtk1Kc6txvS-4" target="VLugGdpwfvtk1Kc6txvS-5">
          <mxGeometry relative="1" as="geometry">
            <mxPoint x="260" y="210" as="sourcePoint" />
            <mxPoint x="360" y="210" as="targetPoint" />
          </mxGeometry>
        </mxCell>
        <mxCell id="B2m-hiyiC4zVJFIlBCmN-24" value="1 - *" style="edgeLabel;resizable=0;html=1;align=center;verticalAlign=middle;" connectable="0" vertex="1" parent="B2m-hiyiC4zVJFIlBCmN-23">
          <mxGeometry relative="1" as="geometry" />
        </mxCell>
        <mxCell id="B2m-hiyiC4zVJFIlBCmN-25" value="*upload from local machine, google drive, one drive" style="text;html=1;strokeColor=none;fillColor=none;align=center;verticalAlign=middle;whiteSpace=wrap;rounded=0;" vertex="1" parent="1">
          <mxGeometry x="10" y="420" width="160" height="30" as="geometry" />
        </mxCell>
      </root>
    </mxGraphModel>
  </diagram>
</mxfile>
